<?xml version="1.0" encoding="UTF-8"?>
<svg xmlns="http://www.w3.org/2000/svg" xmlns:xlink="http://www.w3.org/1999/xlink" width="16px" height="16px" viewBox="0 0 16 16" version="1.1">
<g id="surface1">
<path style=" stroke:none;fill-rule:nonzero;fill:rgb(0%,0%,0%);fill-opacity:1;" d="M 7.75 1.234375 C 6.796875 1.292969 5.886719 1.539062 5.007812 1.96875 C 4.132812 2.398438 3.402344 2.96875 2.789062 3.703125 C 2.320312 4.261719 1.9375 4.894531 1.683594 5.53125 C 1.445312 6.125 1.277344 6.808594 1.226562 7.359375 C 1.222656 7.414062 1.210938 7.515625 1.203125 7.585938 C 1.175781 7.828125 1.167969 8.273438 1.1875 8.570312 C 1.25 9.609375 1.472656 10.476562 1.898438 11.328125 C 2.460938 12.449219 3.339844 13.410156 4.40625 14.0625 C 5.3125 14.617188 6.226562 14.945312 7.265625 15.085938 C 8.109375 15.199219 8.996094 15.140625 9.859375 14.914062 C 11.609375 14.453125 13.085938 13.382812 14.03125 11.882812 C 14.179688 11.640625 14.21875 11.574219 14.367188 11.273438 C 14.71875 10.558594 14.914062 9.863281 15.027344 8.953125 C 15.066406 8.636719 15.0625 7.757812 15.023438 7.40625 C 14.925781 6.523438 14.703125 5.773438 14.304688 4.984375 C 13.640625 3.671875 12.539062 2.585938 11.210938 1.9375 C 10.546875 1.613281 9.953125 1.425781 9.15625 1.296875 C 8.808594 1.242188 8.125 1.210938 7.75 1.234375 Z M 7.527344 1.9375 L 7.628906 1.984375 L 7.722656 1.960938 C 7.933594 1.902344 8.636719 1.910156 9.03125 1.96875 C 9.148438 1.984375 9.269531 2.003906 9.304688 2.007812 C 9.378906 2.023438 9.4375 2.082031 9.4375 2.144531 C 9.4375 2.203125 9.378906 2.261719 9.308594 2.273438 C 9.257812 2.28125 9.253906 2.289062 9.234375 2.375 C 9.21875 2.46875 9.21875 2.472656 9.257812 2.515625 C 9.308594 2.578125 9.308594 2.644531 9.257812 2.699219 C 9.21875 2.734375 9.210938 2.738281 9.105469 2.726562 C 9.042969 2.722656 8.921875 2.707031 8.835938 2.695312 C 8.734375 2.679688 8.503906 2.667969 8.164062 2.660156 L 7.648438 2.652344 L 7.554688 2.699219 C 7.503906 2.726562 7.425781 2.75 7.382812 2.757812 C 7.179688 2.785156 6.96875 2.652344 6.914062 2.460938 C 6.804688 2.078125 7.167969 1.765625 7.527344 1.9375 Z M 6.53125 2.148438 C 6.605469 2.1875 6.625 2.296875 6.566406 2.347656 C 6.550781 2.359375 6.382812 2.425781 6.1875 2.488281 C 5.996094 2.554688 5.828125 2.621094 5.8125 2.632812 C 5.769531 2.671875 5.773438 2.742188 5.820312 2.789062 C 5.839844 2.8125 5.867188 2.828125 5.882812 2.828125 C 5.894531 2.828125 6.050781 2.78125 6.230469 2.71875 C 6.40625 2.660156 6.570312 2.609375 6.585938 2.609375 C 6.605469 2.609375 6.640625 2.628906 6.664062 2.652344 C 6.699219 2.6875 6.703125 2.703125 6.699219 2.757812 C 6.695312 2.789062 6.679688 2.828125 6.664062 2.839844 C 6.648438 2.847656 6.523438 2.894531 6.382812 2.9375 C 6.246094 2.984375 6.046875 3.054688 5.9375 3.09375 C 5.832031 3.136719 5.734375 3.171875 5.71875 3.171875 C 5.703125 3.171875 5.667969 3.152344 5.640625 3.128906 C 5.59375 3.089844 5.589844 3.082031 5.597656 3.011719 C 5.605469 2.945312 5.597656 2.921875 5.554688 2.859375 C 5.53125 2.816406 5.496094 2.78125 5.484375 2.78125 C 5.46875 2.78125 5.398438 2.8125 5.320312 2.851562 C 5.132812 2.953125 5.105469 2.957031 5.042969 2.914062 C 5 2.886719 4.992188 2.871094 4.988281 2.816406 C 4.984375 2.761719 4.988281 2.742188 5.019531 2.71875 C 5.0625 2.675781 5.5625 2.441406 5.761719 2.367188 C 5.921875 2.304688 6.453125 2.125 6.472656 2.125 C 6.480469 2.125 6.507812 2.136719 6.53125 2.148438 Z M 10.179688 2.179688 C 10.375 2.269531 10.472656 2.480469 10.414062 2.675781 C 10.347656 2.90625 10.117188 3.039062 9.902344 2.976562 C 9.777344 2.941406 9.691406 2.867188 9.628906 2.75 C 9.578125 2.65625 9.574219 2.640625 9.582031 2.546875 C 9.597656 2.304688 9.765625 2.140625 10 2.140625 C 10.074219 2.140625 10.121094 2.148438 10.179688 2.179688 Z M 10.984375 2.554688 C 11.203125 2.664062 11.664062 2.957031 11.902344 3.136719 C 12.210938 3.367188 12.65625 3.78125 12.914062 4.078125 C 13.390625 4.628906 13.734375 5.1875 13.992188 5.828125 C 14.1875 6.324219 14.203125 6.441406 14.105469 6.589844 C 14.003906 6.734375 13.820312 6.78125 13.648438 6.695312 C 13.519531 6.632812 13.523438 6.636719 13.335938 6.164062 C 13.046875 5.417969 12.675781 4.859375 12.0625 4.25 C 11.699219 3.886719 11.398438 3.652344 10.941406 3.378906 C 10.664062 3.214844 10.589844 3.148438 10.5625 3.042969 C 10.53125 2.921875 10.578125 2.773438 10.671875 2.707031 C 10.695312 2.6875 10.71875 2.65625 10.71875 2.640625 C 10.71875 2.621094 10.738281 2.585938 10.765625 2.5625 C 10.820312 2.503906 10.882812 2.5 10.984375 2.554688 Z M 4.730469 2.988281 C 4.765625 3.003906 4.8125 3.085938 4.8125 3.132812 C 4.8125 3.191406 4.894531 3.296875 4.9375 3.296875 C 4.953125 3.296875 5.011719 3.269531 5.070312 3.234375 C 5.207031 3.148438 5.265625 3.140625 5.320312 3.191406 C 5.359375 3.234375 5.371094 3.296875 5.351562 3.351562 C 5.34375 3.363281 5.257812 3.421875 5.160156 3.484375 C 4.75 3.734375 4.457031 3.96875 4.101562 4.332031 C 3.734375 4.703125 3.472656 5.046875 3.242188 5.445312 C 3.070312 5.742188 2.996094 5.914062 2.792969 6.445312 C 2.714844 6.644531 2.601562 6.738281 2.425781 6.738281 C 2.3125 6.738281 2.242188 6.710938 2.164062 6.632812 C 2.085938 6.546875 2.050781 6.429688 2.078125 6.3125 C 2.101562 6.207031 2.226562 5.851562 2.304688 5.671875 C 2.441406 5.351562 2.710938 4.878906 2.929688 4.578125 C 3.34375 4.011719 3.914062 3.433594 4.425781 3.074219 C 4.59375 2.953125 4.636719 2.941406 4.730469 2.988281 Z M 8.359375 4.023438 C 8.578125 4.046875 8.742188 4.085938 8.914062 4.15625 C 9.585938 4.421875 10.066406 4.964844 10.246094 5.65625 C 10.285156 5.820312 10.285156 5.824219 10.296875 6.523438 L 10.304688 7.226562 L 10.445312 7.234375 C 10.707031 7.253906 10.925781 7.335938 11.105469 7.480469 C 11.34375 7.671875 11.492188 7.910156 11.570312 8.21875 C 11.601562 8.328125 11.601562 8.410156 11.601562 9.773438 L 11.601562 11.210938 L 11.566406 11.34375 C 11.46875 11.710938 11.222656 12.015625 10.902344 12.171875 C 10.789062 12.226562 10.695312 12.257812 10.582031 12.28125 C 10.429688 12.3125 10.378906 12.3125 8.136719 12.3125 C 5.710938 12.3125 5.71875 12.3125 5.503906 12.242188 C 5.183594 12.132812 4.917969 11.898438 4.773438 11.585938 C 4.695312 11.425781 4.664062 11.316406 4.640625 11.125 C 4.621094 10.957031 4.621094 8.609375 4.640625 8.414062 C 4.679688 8.058594 4.785156 7.824219 5.023438 7.585938 C 5.148438 7.460938 5.183594 7.433594 5.328125 7.363281 C 5.507812 7.273438 5.667969 7.234375 5.84375 7.234375 L 5.953125 7.234375 L 5.953125 6.570312 C 5.953125 6.042969 5.957031 5.882812 5.976562 5.78125 C 6.054688 5.359375 6.265625 4.96875 6.578125 4.65625 C 6.988281 4.246094 7.457031 4.046875 8.132812 4 C 8.148438 4 8.25 4.011719 8.359375 4.023438 Z M 4.515625 5.449219 C 4.570312 5.5625 4.625 5.660156 4.636719 5.664062 C 4.648438 5.667969 4.742188 5.6875 4.847656 5.703125 C 5.078125 5.742188 5.140625 5.765625 5.140625 5.8125 C 5.140625 5.835938 5.082031 5.90625 4.964844 6.023438 L 4.789062 6.203125 L 4.808594 6.324219 C 4.84375 6.570312 4.847656 6.625 4.828125 6.648438 C 4.796875 6.6875 4.75 6.675781 4.578125 6.59375 C 4.488281 6.550781 4.394531 6.515625 4.371094 6.515625 C 4.347656 6.515625 4.253906 6.550781 4.164062 6.59375 C 4.070312 6.636719 3.980469 6.671875 3.960938 6.671875 C 3.898438 6.671875 3.890625 6.609375 3.921875 6.402344 C 3.933594 6.300781 3.941406 6.210938 3.9375 6.199219 C 3.929688 6.191406 3.851562 6.109375 3.757812 6.015625 C 3.59375 5.847656 3.570312 5.804688 3.617188 5.765625 C 3.628906 5.757812 3.734375 5.730469 3.855469 5.710938 C 3.972656 5.6875 4.078125 5.667969 4.09375 5.664062 C 4.109375 5.660156 4.15625 5.578125 4.203125 5.476562 C 4.308594 5.25 4.320312 5.230469 4.371094 5.238281 C 4.410156 5.242188 4.425781 5.265625 4.515625 5.449219 Z M 11.988281 5.261719 C 12.003906 5.277344 12.046875 5.367188 12.089844 5.457031 C 12.132812 5.546875 12.175781 5.632812 12.1875 5.644531 C 12.195312 5.660156 12.242188 5.671875 12.285156 5.679688 C 12.429688 5.699219 12.660156 5.75 12.683594 5.765625 C 12.730469 5.804688 12.703125 5.851562 12.527344 6.027344 L 12.355469 6.203125 L 12.378906 6.394531 C 12.40625 6.613281 12.394531 6.671875 12.335938 6.671875 C 12.316406 6.671875 12.226562 6.636719 12.140625 6.59375 C 12.050781 6.550781 11.960938 6.515625 11.9375 6.515625 C 11.917969 6.515625 11.824219 6.550781 11.734375 6.59375 C 11.46875 6.722656 11.449219 6.703125 11.492188 6.40625 C 11.507812 6.28125 11.511719 6.210938 11.5 6.191406 C 11.492188 6.175781 11.414062 6.089844 11.320312 6 C 11.160156 5.84375 11.136719 5.800781 11.175781 5.769531 C 11.195312 5.75 11.351562 5.71875 11.550781 5.6875 C 11.691406 5.664062 11.6875 5.667969 11.789062 5.4375 C 11.820312 5.363281 11.859375 5.289062 11.871094 5.269531 C 11.898438 5.226562 11.953125 5.222656 11.988281 5.261719 Z M 2.378906 7.503906 C 2.390625 7.515625 2.445312 7.613281 2.5 7.722656 L 2.59375 7.921875 L 2.675781 7.9375 C 3.050781 8.007812 3.085938 8.015625 3.105469 8.039062 C 3.117188 8.054688 3.125 8.078125 3.125 8.085938 C 3.125 8.09375 3.042969 8.179688 2.945312 8.277344 L 2.761719 8.453125 L 2.777344 8.566406 C 2.835938 8.945312 2.820312 8.976562 2.601562 8.871094 C 2.539062 8.839844 2.460938 8.804688 2.417969 8.789062 L 2.34375 8.761719 L 1.929688 8.941406 L 1.902344 8.90625 C 1.867188 8.863281 1.867188 8.859375 1.898438 8.671875 C 1.933594 8.441406 1.945312 8.464844 1.742188 8.273438 C 1.644531 8.175781 1.5625 8.085938 1.5625 8.074219 C 1.5625 8.03125 1.625 8.003906 1.78125 7.976562 C 2.101562 7.921875 2.085938 7.929688 2.128906 7.847656 C 2.152344 7.804688 2.1875 7.730469 2.207031 7.675781 C 2.253906 7.5625 2.304688 7.484375 2.335938 7.484375 C 2.34375 7.484375 2.367188 7.492188 2.378906 7.503906 Z M 13.945312 7.515625 C 13.960938 7.53125 14.003906 7.617188 14.042969 7.707031 C 14.085938 7.792969 14.125 7.878906 14.132812 7.894531 C 14.144531 7.914062 14.207031 7.933594 14.367188 7.960938 C 14.488281 7.984375 14.601562 8.011719 14.621094 8.023438 C 14.683594 8.066406 14.664062 8.105469 14.492188 8.28125 C 14.398438 8.375 14.324219 8.460938 14.324219 8.476562 C 14.324219 8.492188 14.332031 8.589844 14.34375 8.691406 C 14.375 8.960938 14.355469 8.96875 14.082031 8.84375 C 13.988281 8.800781 13.902344 8.765625 13.890625 8.765625 C 13.882812 8.765625 13.796875 8.800781 13.707031 8.84375 C 13.480469 8.945312 13.476562 8.945312 13.445312 8.902344 C 13.421875 8.867188 13.421875 8.84375 13.449219 8.65625 L 13.476562 8.449219 L 13.292969 8.269531 C 13.191406 8.171875 13.109375 8.082031 13.109375 8.070312 C 13.109375 8.03125 13.175781 8.003906 13.328125 7.976562 C 13.410156 7.964844 13.515625 7.945312 13.5625 7.9375 L 13.644531 7.917969 L 13.738281 7.722656 C 13.789062 7.613281 13.835938 7.515625 13.847656 7.503906 C 13.871094 7.476562 13.914062 7.480469 13.945312 7.515625 Z M 2.445312 9.296875 C 2.535156 9.324219 2.632812 9.398438 2.679688 9.472656 C 2.699219 9.507812 2.75 9.648438 2.789062 9.78125 C 3.074219 10.722656 3.488281 11.421875 4.15625 12.09375 C 4.578125 12.515625 5.015625 12.828125 5.59375 13.117188 C 6.210938 13.425781 6.894531 13.625 7.582031 13.695312 L 7.832031 13.722656 L 7.925781 13.679688 C 8.0625 13.617188 8.207031 13.617188 8.328125 13.679688 C 8.40625 13.71875 8.421875 13.722656 8.53125 13.710938 C 9.558594 13.625 10.566406 13.257812 11.375 12.683594 C 11.75 12.414062 12.230469 11.964844 12.507812 11.617188 C 12.632812 11.457031 12.902344 11.066406 12.957031 10.960938 C 13.242188 10.40625 13.285156 10.296875 13.492188 9.644531 C 13.542969 9.476562 13.601562 9.394531 13.699219 9.339844 C 13.804688 9.285156 13.867188 9.277344 13.96875 9.304688 C 14.125 9.351562 14.238281 9.5 14.234375 9.660156 C 14.234375 9.789062 14.050781 10.375 13.90625 10.703125 C 13.671875 11.234375 13.382812 11.703125 12.976562 12.203125 C 12.820312 12.398438 12.335938 12.875 12.117188 13.046875 C 11.542969 13.507812 10.957031 13.835938 10.277344 14.085938 C 9.796875 14.257812 9.132812 14.40625 8.65625 14.445312 C 8.59375 14.449219 8.511719 14.457031 8.476562 14.460938 C 8.441406 14.460938 8.378906 14.484375 8.335938 14.507812 C 8.269531 14.546875 8.242188 14.554688 8.140625 14.554688 C 8.039062 14.554688 8.007812 14.546875 7.929688 14.507812 C 7.851562 14.464844 7.8125 14.457031 7.6875 14.445312 C 5.109375 14.265625 2.902344 12.5625 2.136719 10.164062 C 2.023438 9.8125 1.996094 9.683594 2.007812 9.605469 C 2.027344 9.46875 2.15625 9.328125 2.285156 9.296875 C 2.359375 9.28125 2.375 9.28125 2.445312 9.296875 Z M 2.445312 9.296875 "/>
<path style=" stroke:none;fill-rule:nonzero;fill:rgb(0%,0%,0%);fill-opacity:1;" d="M 7.945312 2.210938 C 7.914062 2.242188 7.90625 2.261719 7.914062 2.292969 C 7.9375 2.382812 7.957031 2.390625 8.15625 2.390625 C 8.332031 2.390625 8.664062 2.410156 8.824219 2.429688 C 8.898438 2.441406 8.90625 2.4375 8.945312 2.398438 C 9.007812 2.339844 8.996094 2.265625 8.921875 2.230469 C 8.851562 2.199219 8.546875 2.171875 8.226562 2.171875 C 7.984375 2.171875 7.984375 2.171875 7.945312 2.210938 Z M 7.945312 2.210938 "/>
<path style=" stroke:none;fill-rule:nonzero;fill:rgb(0%,0%,0%);fill-opacity:1;" d="M 10.871094 2.855469 C 10.824219 2.90625 10.8125 2.964844 10.839844 3 C 10.878906 3.039062 11.140625 3.203125 11.171875 3.203125 C 11.199219 3.203125 11.234375 3.167969 11.265625 3.113281 C 11.289062 3.066406 11.261719 3.015625 11.191406 2.96875 C 10.972656 2.824219 10.917969 2.804688 10.871094 2.855469 Z M 10.871094 2.855469 "/>
<path style=" stroke:none;fill-rule:nonzero;fill:rgb(0%,0%,0%);fill-opacity:1;" d="M 11.476562 3.257812 C 11.398438 3.34375 11.410156 3.359375 11.710938 3.59375 C 11.867188 3.714844 11.914062 3.726562 11.96875 3.664062 C 12.035156 3.578125 12.007812 3.539062 11.746094 3.339844 C 11.585938 3.210938 11.535156 3.195312 11.476562 3.257812 Z M 11.476562 3.257812 "/>
<path style=" stroke:none;fill-rule:nonzero;fill:rgb(0%,0%,0%);fill-opacity:1;" d="M 12.199219 3.796875 C 12.164062 3.8125 12.125 3.875 12.125 3.925781 C 12.125 3.933594 12.226562 4.042969 12.34375 4.167969 C 12.953125 4.800781 13.347656 5.429688 13.640625 6.234375 C 13.675781 6.335938 13.71875 6.425781 13.738281 6.441406 C 13.804688 6.5 13.90625 6.457031 13.90625 6.367188 C 13.90625 6.316406 13.765625 5.929688 13.664062 5.703125 C 13.386719 5.078125 12.945312 4.445312 12.449219 3.957031 C 12.351562 3.859375 12.265625 3.78125 12.257812 3.78125 C 12.25 3.78125 12.222656 3.789062 12.199219 3.796875 Z M 12.199219 3.796875 "/>
<path style=" stroke:none;fill-rule:nonzero;fill:rgb(0%,0%,0%);fill-opacity:1;" d="M 4.453125 3.375 C 4.121094 3.617188 3.65625 4.070312 3.359375 4.4375 C 2.941406 4.960938 2.640625 5.480469 2.425781 6.0625 C 2.3125 6.367188 2.304688 6.429688 2.382812 6.464844 C 2.460938 6.5 2.527344 6.445312 2.570312 6.3125 C 2.695312 5.914062 3.007812 5.289062 3.226562 4.984375 C 3.378906 4.777344 3.53125 4.578125 3.59375 4.5 C 3.714844 4.351562 4.285156 3.792969 4.421875 3.6875 C 4.695312 3.476562 4.703125 3.460938 4.625 3.375 C 4.570312 3.316406 4.539062 3.316406 4.453125 3.375 Z M 4.453125 3.375 "/>
<path style=" stroke:none;fill-rule:nonzero;fill:rgb(0%,0%,0%);fill-opacity:1;" d="M 7.894531 4.773438 C 7.597656 4.828125 7.367188 4.945312 7.148438 5.140625 C 6.957031 5.320312 6.804688 5.570312 6.742188 5.824219 C 6.703125 5.972656 6.699219 5.988281 6.699219 6.609375 L 6.695312 7.242188 L 9.5625 7.25 L 9.558594 6.597656 C 9.554688 5.980469 9.550781 5.9375 9.515625 5.820312 C 9.371094 5.3125 8.972656 4.917969 8.476562 4.796875 C 8.3125 4.753906 8.042969 4.742188 7.894531 4.773438 Z M 7.894531 4.773438 "/>
<path style=" stroke:none;fill-rule:nonzero;fill:rgb(0%,0%,0%);fill-opacity:1;" d="M 7.988281 8.28125 C 7.738281 8.328125 7.511719 8.496094 7.398438 8.722656 C 7.28125 8.964844 7.292969 9.25 7.429688 9.476562 C 7.53125 9.644531 7.695312 9.78125 7.851562 9.828125 L 7.917969 9.847656 L 7.929688 9.964844 C 7.933594 10.03125 7.9375 10.175781 7.9375 10.289062 L 7.9375 10.496094 L 7.632812 10.503906 C 7.390625 10.511719 7.316406 10.519531 7.289062 10.539062 C 7.160156 10.621094 7.171875 10.816406 7.308594 10.882812 C 7.351562 10.902344 7.414062 10.90625 7.644531 10.90625 L 7.929688 10.90625 L 7.925781 11.117188 C 7.921875 11.238281 7.925781 11.351562 7.9375 11.390625 C 7.980469 11.554688 8.160156 11.59375 8.28125 11.460938 C 8.320312 11.421875 8.320312 11.410156 8.324219 11.164062 L 8.328125 10.910156 L 8.625 10.902344 C 8.871094 10.898438 8.921875 10.894531 8.957031 10.871094 C 9.085938 10.789062 9.085938 10.617188 8.957031 10.535156 C 8.921875 10.511719 8.875 10.507812 8.625 10.507812 L 8.335938 10.507812 L 8.332031 10.175781 C 8.328125 9.898438 8.332031 9.84375 8.351562 9.84375 C 8.359375 9.84375 8.429688 9.816406 8.496094 9.78125 C 8.898438 9.578125 9.054688 9.082031 8.835938 8.695312 C 8.667969 8.394531 8.320312 8.222656 7.988281 8.28125 Z M 7.988281 8.28125 "/>
<path style=" stroke:none;fill-rule:nonzero;fill:rgb(0%,0%,0%);fill-opacity:1;" d="M 2.289062 9.59375 C 2.261719 9.621094 2.261719 9.632812 2.28125 9.726562 C 2.304688 9.859375 2.4375 10.269531 2.527344 10.492188 C 2.992188 11.640625 3.832031 12.632812 4.882812 13.277344 C 5.546875 13.683594 6.183594 13.9375 6.921875 14.085938 C 7.148438 14.128906 7.546875 14.1875 7.640625 14.1875 C 7.660156 14.1875 7.664062 14.167969 7.664062 14.097656 C 7.664062 14.046875 7.667969 13.996094 7.671875 13.984375 C 7.679688 13.96875 7.664062 13.960938 7.625 13.957031 C 7.59375 13.953125 7.453125 13.933594 7.3125 13.914062 C 6.414062 13.785156 5.554688 13.457031 4.796875 12.949219 C 3.886719 12.339844 3.164062 11.453125 2.75 10.449219 C 2.671875 10.265625 2.515625 9.792969 2.492188 9.6875 C 2.46875 9.574219 2.355469 9.523438 2.289062 9.59375 Z M 2.289062 9.59375 "/>
<path style=" stroke:none;fill-rule:nonzero;fill:rgb(0%,0%,0%);fill-opacity:1;" d="M 13.800781 9.589844 C 13.78125 9.609375 13.753906 9.671875 13.71875 9.78125 C 13.601562 10.195312 13.476562 10.511719 13.304688 10.855469 C 12.722656 11.992188 11.714844 12.933594 10.515625 13.46875 C 10.003906 13.695312 9.351562 13.875 8.804688 13.9375 C 8.582031 13.960938 8.597656 13.953125 8.601562 14.078125 C 8.601562 14.171875 8.605469 14.1875 8.628906 14.1875 C 8.691406 14.1875 9.144531 14.125 9.28125 14.09375 C 10.539062 13.835938 11.617188 13.253906 12.476562 12.371094 C 13.058594 11.777344 13.492188 11.09375 13.769531 10.34375 C 13.835938 10.167969 13.960938 9.765625 13.976562 9.6875 C 13.996094 9.585938 13.882812 9.523438 13.800781 9.589844 Z M 13.800781 9.589844 "/>
</g>
</svg>
